<svg xmlns="http://www.w3.org/2000/svg" viewBox="0 0 826.13 730" class=""><g data-name="blog"><path d="M790.74 633.07c13.37 0 24.21-10.52 24.21-23.5V176.33c0-13-10.84-23.5-24.21-23.5H40.53c-13.37 0-24.21 10.52-24.21 23.5v433.24c0 13 10.84 23.5 24.21 23.5z" fill="#efefef"></path><path d="M785.76 628.59c13.19 0 23.88-10.33 23.88-23.06V180.38c0-12.74-10.69-23.07-23.88-23.07H45.51c-13.19 0-23.88 10.33-23.88 23.07v425.15c0 12.73 10.69 23.06 23.88 23.06z" fill="#2d2d2d"></path><path fill="#f4f4f4" d="M38.03 179.34h755.22v415.33H38.03z"></path><path d="M812.11 634a224.31 224.31 0 01-38 3.6H55.63a221.44 221.44 0 01-36.42-3.4 2.84 2.84 0 01-2.84-2.83v-10a2.84 2.84 0 012.84-2.83h793a2.84 2.84 0 012.79 2.86v9.79a2.84 2.84 0 01-2.89 2.81z" fill="#e8e8e8"></path><circle cx="410.27" cy="168.3" r="3.36" fill="#4d4c4c"></circle><rect x="16.32" y="618.57" width="798.62" height="14.5" rx="2.83" fill="#efefef"></rect><path d="M363.73 618.57h93.07a8.52 8.52 0 01-8.48 7.74h-76.11a8.52 8.52 0 01-8.48-7.74z" fill="#e8e8e8"></path><rect x="165.66" y="202.81" width="407.81" height="18.97" rx="5.67" fill="#ededed"></rect><path fill="#ededed" d="M657.74 248.71h135.5v345.95h-135.5z"></path><rect x="673.14" y="271.34" width="104.7" height="11.41" rx="3.77" fill="#bfbebf"></rect><rect x="673.14" y="292.17" width="104.7" height="11.41" rx="3.77" fill="#bfbebf"></rect><rect x="673.14" y="313" width="104.7" height="11.41" rx="3.77" fill="#bfbebf"></rect><rect x="673.14" y="354.65" width="104.7" height="11.41" rx="3.77" fill="#bfbebf"></rect><rect x="673.14" y="375.48" width="104.7" height="11.41" rx="3.77" fill="#bfbebf"></rect><rect x="673.14" y="396.31" width="104.7" height="11.41" rx="3.77" fill="#bfbebf"></rect><circle cx="757.13" cy="212.3" r="18.14" fill="#2d2d2d"></circle><path fill="#ffd103" d="M57.68 194.16h86.93v36.27H57.68zM239.29 264.9h12.87v12.87h-12.87z"></path><rect x="100.1" y="264.9" width="131.13" height="12.87" rx="2.83" fill="#010101"></rect><rect x="98.23" y="289.74" width="358.57" height="12.87" rx="6.43" fill="#bfbebf"></rect><rect x="98.23" y="311.54" width="358.57" height="12.87" rx="6.43" fill="#bfbebf"></rect><path fill="#ffd103" d="M239.29 360.51h12.87v12.87h-12.87z"></path><rect x="100.1" y="360.51" width="131.13" height="12.87" rx="2.83" fill="#010101"></rect><rect x="98.23" y="385.34" width="358.57" height="12.87" rx="6.43" fill="#bfbebf"></rect><rect x="98.23" y="407.14" width="358.57" height="12.87" rx="6.43" fill="#bfbebf"></rect><rect x="100.1" y="449.5" width="131.13" height="12.87" rx="2.83" fill="#bfbebf"></rect><rect x="98.23" y="474.33" width="358.57" height="12.87" rx="6.43" fill="#ededed"></rect><rect x="98.23" y="496.13" width="358.57" height="12.87" rx="6.43" fill="#ededed"></rect><rect x="100.1" y="534.03" width="131.13" height="12.87" rx="2.83" fill="#bfbebf"></rect><rect x="98.23" y="558.87" width="358.57" height="12.87" rx="6.43" fill="#ededed"></rect><rect x="98.23" y="580.67" width="358.57" height="12.87" rx="6.43" fill="#ededed"></rect></g></svg>