<svg xmlns="http://www.w3.org/2000/svg" viewBox="0 0 392 299" class=""><defs><clipPath id="a"><path fill="none" d="M0 0h392.026v299.381H0z"></path></clipPath></defs><g data-name="Component 4 – 4" clip-path="url(#a)"><g data-name="Group 122"><g data-name="Group 73"><rect data-name="Rectangle 691" width="88.672" height="169.478" rx="11.16" transform="rotate(11 -450.363 1641.734)" fill="#484748"></rect></g><g data-name="Group 74"><rect data-name="Rectangle 692" width="85.389" height="165.963" rx="10.044" transform="rotate(11 -460.313 1649.381)" fill="#222"></rect></g><g data-name="Group 75"><rect data-name="Rectangle 693" width="81.257" height="161.743" rx="8.928" transform="rotate(11 -472.302 1659.055)" fill="#fff"></rect></g><g data-name="Group 76"><path data-name="Path 37" d="M329.784 124.858l35.967 6.991a3.671 3.671 0 01-3.978 2.97l-29.413-5.717a3.673 3.673 0 01-2.576-4.244z" fill="#222"></path></g><g data-name="Group 99"><g data-name="Group 80"><g data-name="Group 77"><circle data-name="Ellipse 45" cx="8.054" cy="8.054" r="8.054" transform="rotate(11 -724.716 1691.812)" fill="#d8d8d8"></circle></g><g data-name="Group 78"><circle data-name="Ellipse 46" cx="8.054" cy="8.054" r="8.054" transform="rotate(11 -735.56 1804.426)" fill="#d8d8d8"></circle></g><g data-name="Group 79"><circle data-name="Ellipse 47" cx="8.054" cy="8.054" r="8.054" transform="rotate(11 -746.403 1917.04)" fill="#d8d8d8"></circle></g></g><g data-name="Group 84"><g data-name="Group 81"><circle data-name="Ellipse 48" cx="8.054" cy="8.054" r="8.054" transform="rotate(11 -831.535 1681.527)" fill="#a3a3a3"></circle></g><g data-name="Group 82"><circle data-name="Ellipse 49" cx="8.054" cy="8.054" r="8.054" transform="rotate(11 -842.379 1794.14)" fill="#d8d8d8"></circle></g><g data-name="Group 83"><circle data-name="Ellipse 50" cx="8.054" cy="8.054" r="8.054" transform="rotate(11 -853.222 1906.755)" fill="#d8d8d8"></circle></g></g><g data-name="Group 88"><g data-name="Group 85"><circle data-name="Ellipse 51" cx="8.054" cy="8.054" r="8.054" transform="rotate(11 -938.354 1671.241)" fill="#d8d8d8"></circle></g><g data-name="Group 86"><circle data-name="Ellipse 52" cx="8.054" cy="8.054" r="8.054" transform="rotate(11 -949.198 1783.855)" fill="#d8d8d8"></circle></g><g data-name="Group 87"><circle data-name="Ellipse 53" cx="8.054" cy="8.054" r="8.054" transform="rotate(11 -960.041 1896.47)" fill="#d8d8d8"></circle></g></g><g data-name="Group 95"><g data-name="Group 90"><g data-name="Group 89"><circle data-name="Ellipse 54" cx="8.054" cy="8.054" r="8.054" transform="rotate(11 -1056.017 1773.57)" fill="#d8d8d8"></circle></g></g><g data-name="Group 92"><g data-name="Group 91"><circle data-name="Ellipse 55" cx="8.054" cy="8.054" r="8.054" transform="rotate(11 -1045.173 1660.956)" fill="#d8d8d8"></circle></g></g><g data-name="Group 94"><g data-name="Group 93"><circle data-name="Ellipse 56" cx="8.054" cy="8.054" r="8.054" transform="rotate(11 -1066.86 1886.184)" fill="#d8d8d8"></circle></g></g></g><g data-name="Group 98"><g data-name="Group 97"><g data-name="Group 96"><circle data-name="Ellipse 57" cx="8.054" cy="8.054" r="8.054" transform="rotate(11 -1172.23 1762.38)" fill="#bfc822"></circle></g></g></g></g><g data-name="Group 100"><path data-name="Path 38" d="M340.994 265.113l-3.972 2.816a.925.925 0 00-.237 1.262l2.711 4.132a.927.927 0 00.597.4l6.297 1.224a.925.925 0 001.084-.732l1.348-6.93a.925.925 0 00-.732-1.085l-6.38-1.24a.924.924 0 00-.716.153z" fill="#ffc500"></path></g><g data-name="Group 101"><rect data-name="Rectangle 694" width="6.505" height="6.505" rx="2.704" transform="rotate(11 -517.72 1970.605)" fill="#ffc500"></rect></g><g data-name="Group 102"><rect data-name="Rectangle 695" width="6.505" height="6.505" rx="2.704" transform="rotate(11 -489.707 1679.679)" fill="#ffc500"></rect></g><g data-name="Group 103"><path data-name="Rectangle 696" fill="#ffc500" d="M376.918 137.605l5.252 1.02-1.021 5.252-5.252-1.02z"></path></g><g data-name="Group 104"><path data-name="Path 39" d="M324.423 128.01l-2.555 2.94a1.045 1.045 0 00.585 1.708l3.823.743a1.044 1.044 0 001.182-1.365l-1.268-3.683a1.045 1.045 0 00-1.767-.343z" fill="#ffc500"></path></g><g data-name="Group 105" fill="#161615"><path data-name="Path 40" d="M321.69 152.876a4.43 4.43 0 01-.383 1.177 2.521 2.521 0 01-.576.766 1.692 1.692 0 01-.717.377 1.873 1.873 0 01-.804.013 1.85 1.85 0 01-.738-.313 1.693 1.693 0 01-.519-.617 2.5 2.5 0 01-.242-.925 5.114 5.114 0 01.47-2.414 2.506 2.506 0 01.57-.765 1.693 1.693 0 01.712-.378 1.85 1.85 0 01.801-.014 1.873 1.873 0 01.741.313 1.692 1.692 0 01.524.619 2.529 2.529 0 01.247.924 4.432 4.432 0 01-.087 1.237zm-.937-.182a4.608 4.608 0 00.102-.971 1.966 1.966 0 00-.11-.646.831.831 0 00-.264-.377.87.87 0 00-.363-.164.856.856 0 00-.394.016.836.836 0 00-.382.252 1.947 1.947 0 00-.34.559 5.606 5.606 0 00-.37 1.909 1.937 1.937 0 00.104.645.83.83 0 00.26.376.858.858 0 00.36.164.871.871 0 00.398-.017.825.825 0 00.386-.25 1.956 1.956 0 00.344-.558 4.6 4.6 0 00.272-.937z"></path><path data-name="Path 41" d="M326.76 155.911l-.132.68-2.937-.571.132-.68 1.08.21.602-3.095c.024-.122.048-.248.085-.375l-.888.49a.325.325 0 01-.143.039.32.32 0 01-.12-.024.325.325 0 01-.091-.057.23.23 0 01-.055-.074l-.21-.448 1.886-1.06.745.145-.901 4.637z"></path><path data-name="Path 42" d="M333.015 155.759l-.102.525a.184.184 0 01-.073.117.176.176 0 01-.145.028l-.485-.094-.252 1.296-.786-.153.252-1.296-2.245-.436a.257.257 0 01-.15-.089.25.25 0 01-.06-.159l-.01-.477 3.169-2.87.858.166-.643 3.311zm-1.457-.283l.337-1.736a5.162 5.162 0 01.139-.537l-2.091 1.959z"></path><path data-name="Path 43" d="M339.324 153.55l-.076.392a.926.926 0 01-.093.277 1.529 1.529 0 01-.109.168l-2.816 3.75a.622.622 0 01-.22.184.485.485 0 01-.321.03l-.657-.127 2.84-3.658c.064-.074.124-.142.182-.203a1.67 1.67 0 01.192-.167l-2.542-.494a.217.217 0 01-.168-.25l.119-.612z"></path><path data-name="Path 44" d="M341.15 155.44a2.008 2.008 0 01.344-.63 1.641 1.641 0 01.486-.404 1.663 1.663 0 01.6-.184 2.215 2.215 0 01.678.03 1.992 1.992 0 01.642.234 1.525 1.525 0 01.448.392 1.3 1.3 0 01.236.497 1.331 1.331 0 01.007.562 1.594 1.594 0 01-.144.435 1.068 1.068 0 01-.228.304.965.965 0 01-.311.19 1.663 1.663 0 01-.389.097 1.41 1.41 0 01.623.597 1.264 1.264 0 01.085.82 1.616 1.616 0 01-.283.673 1.525 1.525 0 01-.493.436 1.749 1.749 0 01-.639.202 2.291 2.291 0 01-.716-.03 2.433 2.433 0 01-.68-.226 1.533 1.533 0 01-.464-.373 1.654 1.654 0 01-.29-.514 2.993 2.993 0 01-.147-.653l.432-.087a.493.493 0 01.301.022.3.3 0 01.168.187q.04.142.095.282a1.046 1.046 0 00.146.258.894.894 0 00.229.209.953.953 0 00.342.13 1.025 1.025 0 00.418.002.89.89 0 00.326-.14.817.817 0 00.225-.236.842.842 0 00.114-.284 1.38 1.38 0 00.028-.354.519.519 0 00-.118-.299.928.928 0 00-.335-.245 2.674 2.674 0 00-.632-.188l.126-.645a2.365 2.365 0 00.566.046.972.972 0 00.383-.096.566.566 0 00.23-.216.987.987 0 00.114-.313.753.753 0 00-.099-.61.8.8 0 00-.52-.305.953.953 0 00-.303-.012.877.877 0 00-.269.081.822.822 0 00-.22.161.842.842 0 00-.157.22.41.41 0 01-.207.193.462.462 0 01-.29-.03z"></path><path data-name="Path 45" d="M354.03 156.408l-.076.393a.96.96 0 01-.091.277 1.532 1.532 0 01-.11.167l-2.817 3.75a.631.631 0 01-.218.185.49.49 0 01-.323.03l-.656-.127 2.84-3.658c.063-.075.123-.143.183-.203a1.77 1.77 0 01.19-.167l-2.538-.493a.215.215 0 01-.169-.25l.12-.613z"></path><path data-name="Path 46" d="M357.29 159.041l-.228.192a1.6 1.6 0 01.356-.055 1.722 1.722 0 01.392.033 1.807 1.807 0 01.57.212 1.465 1.465 0 01.444.397 1.525 1.525 0 01.251.566 1.725 1.725 0 01-.003.72 1.825 1.825 0 01-.27.669 1.744 1.744 0 01-.493.492 1.808 1.808 0 01-.663.268 2.245 2.245 0 01-1.53-.297 1.644 1.644 0 01-.753-1.15 2.228 2.228 0 01.021-.786 2.177 2.177 0 01.302-.74 3.57 3.57 0 01.632-.73l1.597-1.453a.545.545 0 01.225-.112.669.669 0 01.307-.005l.808.157zm-.318 2.739a1.066 1.066 0 00.411.003.932.932 0 00.353-.144.971.971 0 00.264-.27 1.026 1.026 0 00.149-.374 1.169 1.169 0 00.01-.423.889.889 0 00-.137-.346.871.871 0 00-.27-.257 1.155 1.155 0 00-.38-.143 1.022 1.022 0 00-.407-.003.892.892 0 00-.341.146.933.933 0 00-.257.27 1.049 1.049 0 00-.144.37 1.291 1.291 0 00-.018.414.854.854 0 00.12.345.836.836 0 00.256.253 1.083 1.083 0 00.39.159z"></path><path data-name="Path 47" d="M361.367 160.649l1.902.37-.148.756-1.9-.37z"></path></g><g data-name="Group 109"><g data-name="Group 106"><path data-name="Path 48" d="M309.357 221.21l-.132.679-2.936-.571.132-.68 1.08.21.601-3.094c.024-.122.049-.249.086-.376l-.888.49a.325.325 0 01-.143.04.319.319 0 01-.121-.024.283.283 0 01-.09-.057.216.216 0 01-.056-.073l-.21-.448 1.887-1.06.745.145-.902 4.636z" fill="#161615"></path></g><g data-name="Group 107"><path data-name="Path 49" d="M330.61 225.176a.334.334 0 01.218.126.3.3 0 01.043.236l-.105.544-3.642-.708.058-.301a.551.551 0 01.077-.19.518.518 0 01.158-.158l1.926-1.302c.162-.11.307-.218.438-.322a2.567 2.567 0 00.338-.32 1.755 1.755 0 00.236-.34 1.384 1.384 0 00.134-.388.973.973 0 00.01-.346.67.67 0 00-.108-.274.655.655 0 00-.213-.196 1 1 0 00-.308-.111.938.938 0 00-.304-.011.829.829 0 00-.643.46.409.409 0 01-.206.192.461.461 0 01-.29-.03l-.46-.177a1.979 1.979 0 01.343-.63 1.629 1.629 0 01.486-.404 1.653 1.653 0 01.599-.184 2.208 2.208 0 01.678.03 2.021 2.021 0 01.651.238 1.554 1.554 0 01.462.408 1.413 1.413 0 01.244.544 1.573 1.573 0 010 .643 1.67 1.67 0 01-.191.527 2.268 2.268 0 01-.324.432 3.266 3.266 0 01-.425.374c-.157.118-.322.235-.492.354l-1.434.99a2.618 2.618 0 01.358-.011 2.052 2.052 0 01.33.035z" fill="#161615"></path></g><g data-name="Group 108"><path data-name="Path 50" d="M349.144 225.675a2.023 2.023 0 01.343-.629 1.629 1.629 0 01.486-.405 1.662 1.662 0 01.6-.184 2.219 2.219 0 01.678.03 2.017 2.017 0 01.643.233 1.551 1.551 0 01.447.393 1.29 1.29 0 01.236.497 1.316 1.316 0 01.008.562 1.63 1.63 0 01-.143.434 1.091 1.091 0 01-.23.304.964.964 0 01-.31.191 1.689 1.689 0 01-.39.097 1.41 1.41 0 01.623.597 1.264 1.264 0 01.086.82 1.627 1.627 0 01-.284.673 1.541 1.541 0 01-.492.435 1.749 1.749 0 01-.64.202 2.261 2.261 0 01-.715-.028 2.43 2.43 0 01-.68-.228 1.533 1.533 0 01-.465-.372 1.654 1.654 0 01-.289-.514 3.047 3.047 0 01-.147-.653l.432-.087a.489.489 0 01.302.022.3.3 0 01.167.187c.027.094.06.188.095.282a1.07 1.07 0 00.147.258.919.919 0 00.228.209.953.953 0 00.343.13 1.021 1.021 0 00.418.002.89.89 0 00.325-.14.812.812 0 00.226-.237.838.838 0 00.115-.288 1.38 1.38 0 00.027-.354.519.519 0 00-.117-.3.922.922 0 00-.336-.244 2.724 2.724 0 00-.631-.188l.125-.645a2.31 2.31 0 00.567.044.972.972 0 00.382-.094.571.571 0 00.23-.216.991.991 0 00.114-.313.753.753 0 00-.098-.61.8.8 0 00-.52-.305.926.926 0 00-.304-.011.863.863 0 00-.268.08.8.8 0 00-.22.161.84.84 0 00-.157.221.411.411 0 01-.207.192.461.461 0 01-.29-.03z" fill="#161615"></path></g></g><g data-name="Group 111"><g data-name="Group 110"><path data-name="Path 51" d="M327.495 243.732a4.43 4.43 0 01-.383 1.177 2.521 2.521 0 01-.576.766 1.692 1.692 0 01-.717.377 1.873 1.873 0 01-.804.013 1.85 1.85 0 01-.738-.313 1.693 1.693 0 01-.519-.617 2.517 2.517 0 01-.241-.925 5.114 5.114 0 01.469-2.414 2.524 2.524 0 01.57-.765 1.693 1.693 0 01.712-.378 1.85 1.85 0 01.802-.014 1.873 1.873 0 01.74.313 1.692 1.692 0 01.524.619 2.528 2.528 0 01.247.924 4.432 4.432 0 01-.086 1.237zm-.937-.182a4.608 4.608 0 00.103-.971 1.966 1.966 0 00-.11-.646.825.825 0 00-.264-.377.871.871 0 00-.363-.165.858.858 0 00-.395.017.829.829 0 00-.382.252 1.947 1.947 0 00-.339.559 5.606 5.606 0 00-.37 1.909 1.947 1.947 0 00.104.645.836.836 0 00.26.376.857.857 0 00.36.163.87.87 0 00.398-.015.832.832 0 00.386-.251 1.966 1.966 0 00.343-.558 4.6 4.6 0 00.27-.938z" fill="#161615"></path></g></g><g data-name="Group 115"><g data-name="Group 112"><path data-name="Path 52" d="M313.696 200.338l-.102.524a.192.192 0 01-.072.118.177.177 0 01-.146.027l-.484-.094-.252 1.296-.785-.153.251-1.296-2.24-.435a.261.261 0 01-.21-.245l-.01-.478 3.168-2.87.86.166-.645 3.312zm-1.456-.283l.337-1.737a5.155 5.155 0 01.138-.537l-2.091 1.96z" fill="#161615"></path></g><g data-name="Group 113"><path data-name="Path 53" d="M332.843 202.626a3.289 3.289 0 01.348.013c.11.01.215.024.316.044a2.054 2.054 0 01.714.268 1.554 1.554 0 01.469.45 1.462 1.462 0 01.225.579 1.84 1.84 0 01-.013.658 1.976 1.976 0 01-.299.742 1.759 1.759 0 01-.529.516 1.878 1.878 0 01-.7.263 2.249 2.249 0 01-.812-.017 2.147 2.147 0 01-.464-.144 2.374 2.374 0 01-.968-.782l.354-.332a.276.276 0 01.255-.08.359.359 0 01.176.096c.056.052.12.108.193.171a1.82 1.82 0 00.265.184 1.24 1.24 0 00.391.137 1.145 1.145 0 00.457.005.873.873 0 00.36-.164.989.989 0 00.264-.307 1.454 1.454 0 00.148-.423.917.917 0 00-.12-.726 1.045 1.045 0 00-.695-.388 2.37 2.37 0 00-.803-.011l-.534-.272.942-2.491 2.622.51-.075.384a.436.436 0 01-.183.293.581.581 0 01-.435.04l-1.456-.283z" fill="#161615"></path></g><g data-name="Group 114"><path data-name="Path 54" d="M354.44 206.544l-.227.191a1.521 1.521 0 01.355-.054 1.674 1.674 0 01.392.032 1.781 1.781 0 01.57.213 1.432 1.432 0 01.443.397 1.521 1.521 0 01.252.564 1.725 1.725 0 01-.002.72 1.826 1.826 0 01-.272.67 1.749 1.749 0 01-.492.493 1.827 1.827 0 01-.663.267 2.091 2.091 0 01-.794-.01 2.069 2.069 0 01-.736-.283 1.686 1.686 0 01-.503-.493 1.666 1.666 0 01-.251-.66 2.228 2.228 0 01.021-.787 2.158 2.158 0 01.303-.74 3.523 3.523 0 01.63-.727l1.597-1.454a.532.532 0 01.226-.113.656.656 0 01.306-.005l.808.157zm-.319 2.739a1.075 1.075 0 00.413.003.938.938 0 00.352-.145.984.984 0 00.264-.27 1.02 1.02 0 00.149-.373 1.171 1.171 0 00.01-.424.85.85 0 00-.41-.6 1.165 1.165 0 00-.38-.141 1.025 1.025 0 00-.406-.003.9.9 0 00-.341.145.942.942 0 00-.256.27 1.049 1.049 0 00-.145.37 1.3 1.3 0 00-.018.414.864.864 0 00.12.345.821.821 0 00.257.254 1.087 1.087 0 00.392.155z" fill="#161615"></path></g></g><g data-name="Group 119"><g data-name="Group 116"><path data-name="Path 55" d="M318.234 176.663l-.076.392a.921.921 0 01-.092.278 1.485 1.485 0 01-.109.168l-2.817 3.75a.625.625 0 01-.218.184.487.487 0 01-.322.03l-.658-.127 2.841-3.657c.063-.075.124-.142.182-.203a1.765 1.765 0 01.19-.167l-2.54-.494a.217.217 0 01-.168-.25l.119-.613z" fill="#161615"></path></g><g data-name="Group 117"><path data-name="Path 56" d="M337.828 183.109a1.385 1.385 0 01.623.621 1.362 1.362 0 01.076.84 1.514 1.514 0 01-.258.613 1.438 1.438 0 01-.471.418 1.763 1.763 0 01-.643.198 2.646 2.646 0 01-1.501-.292 1.753 1.753 0 01-.522-.424 1.438 1.438 0 01-.28-.564 1.515 1.515 0 01-.01-.665 1.363 1.363 0 01.385-.75 1.386 1.386 0 01.81-.343 1.26 1.26 0 01-.49-.572 1.31 1.31 0 01-.056-.754 1.329 1.329 0 01.231-.538 1.408 1.408 0 01.432-.386 1.633 1.633 0 01.586-.2 2.194 2.194 0 011.347.263 1.643 1.643 0 01.468.403 1.422 1.422 0 01.256.52 1.329 1.329 0 01.013.586 1.3 1.3 0 01-.335.678 1.25 1.25 0 01-.66.348zm-1.307 1.944a1.114 1.114 0 00.405.012.821.821 0 00.32-.123.759.759 0 00.227-.238 1.007 1.007 0 00.124-.329.875.875 0 00-.113-.708 1.131 1.131 0 00-1.337-.26.875.875 0 00-.37.614.985.985 0 00-.008.352.746.746 0 00.122.306.821.821 0 00.25.233 1.114 1.114 0 00.381.141zm.784-4.034a.908.908 0 00-.36-.006.724.724 0 00-.277.12.672.672 0 00-.19.212.911.911 0 00-.102.277 1.246 1.246 0 00-.021.314.742.742 0 00.079.29.674.674 0 00.206.232 1.028 1.028 0 00.743.145.674.674 0 00.278-.138.725.725 0 00.181-.24 1.246 1.246 0 00.098-.299.885.885 0 00.008-.295.716.716 0 00-.096-.269.706.706 0 00-.21-.214.912.912 0 00-.336-.13z" fill="#161615"></path></g><g data-name="Group 118"><path data-name="Path 57" d="M358.588 187.88c.052-.044.1-.083.147-.129s.091-.084.135-.125a1.507 1.507 0 01-.438.1 1.779 1.779 0 01-.474-.03 1.606 1.606 0 01-.521-.203 1.379 1.379 0 01-.414-.38 1.479 1.479 0 01-.24-.542 1.662 1.662 0 01.003-.691 1.719 1.719 0 01.74-1.117 1.779 1.779 0 01.645-.26 2.15 2.15 0 011.474.28 1.623 1.623 0 01.484.466 1.606 1.606 0 01.245.624 2 2 0 01-.015.732 2.5 2.5 0 01-.133.458 2.6 2.6 0 01-.201.401 2.924 2.924 0 01-.264.356 4.387 4.387 0 01-.32.339l-1.553 1.497a.5.5 0 01-.216.112.655.655 0 01-.294.006l-.834-.162zm-.882-1.89a.943.943 0 00.098.722.891.891 0 00.606.359 1.046 1.046 0 00.406.007.838.838 0 00.332-.134.815.815 0 00.234-.252 1.048 1.048 0 00.13-.344 1.1 1.1 0 00.01-.4.807.807 0 00-.133-.325.817.817 0 00-.252-.235 1.06 1.06 0 00-.353-.134.987.987 0 00-.385-.004.819.819 0 00-.555.388 1.038 1.038 0 00-.14.351z" fill="#161615"></path></g></g><g data-name="Group 120"><rect data-name="Rectangle 697" width="6.293" height="6.293" rx="1.285" transform="rotate(11 -1073.107 1683.983)" fill="#b5b4b4"></rect></g><g data-name="Group 121"><rect data-name="Rectangle 698" width="6.293" height="6.293" rx="1.063" transform="rotate(11 -1094.794 1909.21)" fill="#b5b4b4"></rect></g></g><g data-name="Group 144"><path data-name="Path 68" d="M109.121 25.182L0 95.498h243.165L134.044 25.182a23 23 0 00-24.923 0z" fill="#efefee"></path><path data-name="Rectangle 727" fill="#efefee" d="M.002 95.499h243.165v138.582H.002z"></path><g data-name="Group 143" transform="translate(-340.594 -267.888)"><path data-name="Path 69" d="M567.8 271.6v204.078a3.712 3.712 0 01-3.714 3.714H360.01a3.717 3.717 0 01-3.719-3.714V292.86l24.977-24.972h182.818a3.712 3.712 0 013.714 3.712z" fill="#fff"></path><g data-name="Group 140" fill="#b1b1b1"><rect data-name="Rectangle 728" width="38.996" height="3.41" rx="1.107" transform="translate(516.797 283.483)"></rect><rect data-name="Rectangle 729" width="50.007" height="3.41" rx="1.253" transform="translate(505.786 291.155)"></rect><rect data-name="Rectangle 730" width="50.007" height="3.41" rx="1.253" transform="translate(505.786 306.498)"></rect><rect data-name="Rectangle 731" width="44.043" height="3.41" rx="1.176" transform="translate(511.75 298.826)"></rect><rect data-name="Rectangle 732" width="21.202" height="3.41" rx="1.176" transform="translate(534.591 314.169)"></rect></g><g data-name="Group 141"><rect data-name="Rectangle 733" width="38.996" height="3.41" rx="1.705" transform="rotate(180 203.935 165.208)" fill="#ffc500"></rect><rect data-name="Rectangle 734" width="50.007" height="3.41" rx="1.253" transform="translate(368.873 334.679)" fill="#b1b1b1"></rect><rect data-name="Rectangle 735" width="50.007" height="3.41" rx="1.253" transform="translate(368.873 350.022)" fill="#b1b1b1"></rect><rect data-name="Rectangle 736" width="44.043" height="3.41" rx="1.176" transform="translate(368.873 342.35)" fill="#b1b1b1"></rect><rect data-name="Rectangle 737" width="21.202" height="3.41" rx="1.176" transform="translate(368.873 357.693)" fill="#b1b1b1"></rect></g><g data-name="Group 142" fill="#b1b1b1"><rect data-name="Rectangle 738" width="176.836" height="3.41" rx="1.107" transform="translate(368.874 393.757)"></rect><rect data-name="Rectangle 739" width="185.073" height="3.41" rx="1.253" transform="translate(368.874 401.429)"></rect><rect data-name="Rectangle 740" width="185.073" height="3.41" rx="1.253" transform="translate(368.874 416.772)"></rect><rect data-name="Rectangle 741" width="188.668" height="3.41" rx="1.176" transform="translate(368.874 409.1)"></rect><rect data-name="Rectangle 742" width="78.467" height="3.41" rx="1.176" transform="translate(368.874 424.444)"></rect></g><rect data-name="Rectangle 743" width="38.996" height="4.167" rx="2.084" transform="translate(368.873 312.086)" fill="#040506"></rect><rect data-name="Rectangle 744" width="38.996" height="4.167" rx="2.084" transform="translate(368.873 379.161)" fill="#040506"></rect><path data-name="Path 70" d="M381.648 267.888V294.5h-25.357v-1.64l24.978-24.972z" fill="#f9f9f9"></path><path data-name="Path 71" d="M381.268 267.888v24.972h-24.977z" fill="#fcfdfd"></path></g><path data-name="Path 72" d="M134.042 165.812l109.125-70.317V234.08H.006V95.498l109.115 70.314a23 23 0 0024.921 0z" fill="#f9f9f9"></path><path data-name="Path 73" d="M237.406 234.08H.006v-3.058l103.869-66.931a23 23 0 0124.925 0z" fill="#f6f5f5"></path><path data-name="Path 74" d="M109.121 164.091L0 234.412h243.165l-109.121-70.321a23 23 0 00-24.923 0z" fill="#fcfdfd"></path></g></g></svg>