<svg xmlns="http://www.w3.org/2000/svg" viewBox="0 0 1340 875" class=""><defs><clipPath id="a"><circle cx="116" cy="116" r="109" fill="none"></circle></clipPath></defs><path d="M1340 463.3H632V59.06a22.82 22.82 0 0122.76-22.75h662.48A22.82 22.82 0 011340 59.06z" fill="#2d2d2d"></path><path d="M1340 448.63H632v404.23a22.82 22.82 0 0022.76 22.76h662.48a22.82 22.82 0 0022.76-22.76z" fill="#2d2d2d"></path><path fill="#f9f9f9" d="M648 58.93h676v389.99H648zM648 463.01h676V853H648z"></path><rect x="916.31" y="422.23" width="8.96" height="63.33" rx="4.4" fill="#141414"></rect><rect x="783.4" y="422.23" width="8.96" height="63.33" rx="4.4" fill="#141414"></rect><rect x="1049.22" y="422.23" width="8.96" height="63.33" rx="4.4" fill="#141414"></rect><rect x="1182.13" y="422.23" width="8.96" height="63.33" rx="4.4" fill="#141414"></rect><rect x="684.84" y="115.27" width="275.78" height="136.26" rx="2.77" fill="#ffd100"></rect><rect x="684.84" y="268.79" width="128.56" height="123.78" rx="1.8" fill="#ffd100"></rect><rect x="832.06" y="268.79" width="128.56" height="52.77" rx="1.18" fill="#ffd100"></rect><rect x="833.62" y="339.8" width="128.56" height="52.77" rx="1.18" fill="#ffd100"></rect><rect x="993.47" y="115.27" width="293.7" height="19.19" rx="9.49"></rect><rect x="993.47" y="156.53" width="247.9" height="11.27" rx="5.58" fill="#bfbfbf"></rect><rect x="993.47" y="177.57" width="264.82" height="11.27" rx="5.58" fill="#bfbfbf"></rect><rect x="993.47" y="198.61" width="224.01" height="11.27" rx="5.54" fill="#bfbfbf"></rect><rect x="993.47" y="219.65" width="190.16" height="11.27" rx="5.1" fill="#bfbfbf"></rect><rect x="993.47" y="251.97" width="264.82" height="11.27" rx="5.58" fill="#bfbfbf"></rect><rect x="993.47" y="273.01" width="226.99" height="11.27" rx="5.57" fill="#bfbfbf"></rect><rect x="993.47" y="294.05" width="237.94" height="11.27" rx="5.58" fill="#bfbfbf"></rect><rect x="993.47" y="315.1" width="247.9" height="11.27" rx="5.58" fill="#bfbfbf"></rect><rect x="684.84" y="519.35" width="275.78" height="136.26" rx="2.77" fill="#b29000"></rect><rect x="684.84" y="672.88" width="128.56" height="123.78" rx="1.8" fill="#b29000"></rect><rect x="832.06" y="672.88" width="128.56" height="52.77" rx="1.18" fill="#b29000"></rect><rect x="833.62" y="743.89" width="128.56" height="52.77" rx="1.18" fill="#b29000"></rect><rect x="993.47" y="519.35" width="293.7" height="19.19" rx="9.49"></rect><rect x="993.47" y="560.61" width="247.9" height="11.27" rx="5.58" fill="#bfbfbf"></rect><rect x="993.47" y="581.65" width="264.82" height="11.27" rx="5.58" fill="#bfbfbf"></rect><rect x="993.47" y="602.7" width="224.01" height="11.27" rx="5.54" fill="#bfbfbf"></rect><rect x="993.47" y="623.74" width="190.16" height="11.27" rx="5.1" fill="#bfbfbf"></rect><rect x="993.47" y="656.05" width="264.82" height="11.27" rx="5.58" fill="#bfbfbf"></rect><rect x="993.47" y="677.1" width="226.99" height="11.27" rx="5.57" fill="#bfbfbf"></rect><rect x="993.47" y="698.14" width="237.94" height="11.27" rx="5.58" fill="#bfbfbf"></rect><rect x="993.47" y="719.18" width="247.9" height="11.27" rx="5.58" fill="#bfbfbf"></rect><rect x="208.5" y="172.5" width="25" height="97" rx="12.5" transform="rotate(-45 221 220.999)" fill="#fff"></rect><circle cx="116" cy="116" r="116" fill="#fff"></circle><circle cx="116" cy="116" r="109" fill="#f2f2f2"></circle><g clip-path="url(#a)"><path d="M0 7s144-26 171 26l-27.69 179.22S58 232 0 232z" fill="#d1d1d1"></path></g><circle cx="116" cy="116" r="100" fill="#ba8125"></circle><path d="M208 116c-4.31 50.63-41.19 92-92 92-60 0-92.66-35.21-94-86-1-38 43.19-100 94-100 40 0 96 47 92 94z" fill="#513510"></path><rect x="229.67" y="411" width="349.65" height="462" rx="2.98" fill="#2d2d2d"></rect><rect x="238" y="424" width="333" height="440" rx="2.83" fill="#f9f9f9"></rect><rect x="304.2" y="448.87" width="162.8" height="9.13" rx="4.56"></rect><circle cx="276.5" cy="453.5" r="11.5" fill="#ffd100"></circle><rect x="477.14" y="490" width="74.86" height="6.55" rx="2.12" fill="#bfbfbf"></rect><rect x="265.14" y="522" width="74.86" height="8" rx="2.35"></rect><rect x="456" y="504.73" width="96" height="6.55" rx="2.41" fill="#bfbfbf"></rect><rect x="467.45" y="519.45" width="84.55" height="6.55" rx="2.26" fill="#bfbfbf"></rect><rect x="265.14" y="549" width="245.86" height="6.55" rx="3.27" fill="#bfbfbf"></rect><rect x="265.14" y="564" width="186.86" height="6.55" rx="2.85" fill="#bfbfbf"></rect><rect x="265.14" y="579" width="217.86" height="6.55" rx="3.08" fill="#bfbfbf"></rect><rect x="265.14" y="594" width="204.86" height="6.55" rx="2.99" fill="#bfbfbf"></rect><rect x="265.14" y="624" width="230.86" height="6.55" rx="3.03" fill="#bfbfbf"></rect><rect x="265.14" y="639" width="225.86" height="6.55" rx="3.14" fill="#bfbfbf"></rect><rect x="265.14" y="654" width="250.86" height="6.55" rx="3.27" fill="#bfbfbf"></rect><rect x="265.14" y="669" width="265.86" height="6.55" rx="3.27" fill="#bfbfbf"></rect><rect x="265.14" y="699" width="204.86" height="6.55" rx="2.83" fill="#bfbfbf"></rect><rect x="265.14" y="714" width="223.86" height="6.55" rx="3.12" fill="#bfbfbf"></rect><rect x="265.14" y="729" width="233.86" height="6.55" rx="3.19" fill="#bfbfbf"></rect><rect x="265.14" y="744" width="257.86" height="6.55" rx="3.27" fill="#bfbfbf"></rect><rect x="265.14" y="774" width="101.86" height="6.55" rx="3.11" fill="#bfbfbf"></rect></svg>